# xmcd CD database file
#
# Track frame offsets:
#	182
#	11907
#	27077
#	44170
#	62885
#	76247
#	91395
#	106877
#	120792
#	134475
#
# Disc length: 1991 seconds
#
# Revision: 5
# Processed by: cddbd v1.5.2PL0 Copyright (c) Steve Scherf et al.
# Submitted via: CDex 1.70beta2
#
DISCID=7e07c50a
DTITLE=Neal McCoy - You Gotta Love That
DYEAR=1994
DGENRE=Country
TTITLE0=You Gotta Love That
TTITLE1=For A Change
TTITLE2=Y-O-U
TTITLE3=Please Don't Leave Me Now
TTITLE4=Twang
TTITLE5=They're Playin' Our Song
TTITLE6=Spending Every Minute In Love
TTITLE7=Plain Jane
TTITLE8=You're Backin' Up
TTITLE9=If I Was A Drinkin' Man
EXTD=YEAR: 1994
EXTT0=
EXTT1=
EXTT2=
EXTT3=
EXTT4=
EXTT5=
EXTT6=
EXTT7=
EXTT8=
EXTT9=
PLAYORDER=
